<svg width="174" height="41" viewBox="0 0 174 41" fill="none" xmlns="http://www.w3.org/2000/svg">
<path d="M14.6094 31H8.55469V7.48438H0.800781V2.44531H22.3633V7.48438H14.6094V31ZM35.293 8.75391C37.3112 8.75391 39.0495 9.14453 40.5078 9.92578C41.9661 10.694 43.0924 11.8138 43.8867 13.2852C44.681 14.7565 45.0781 16.5534 45.0781 18.6758V21.5664H30.9961C31.0612 23.2461 31.5625 24.5677 32.5 25.5312C33.4505 26.4818 34.7656 26.957 36.4453 26.957C37.8385 26.957 39.1146 26.8138 40.2734 26.5273C41.4323 26.2409 42.6237 25.8112 43.8477 25.2383V29.8477C42.7669 30.3815 41.6341 30.7721 40.4492 31.0195C39.2773 31.2669 37.8516 31.3906 36.1719 31.3906C33.9844 31.3906 32.0443 30.987 30.3516 30.1797C28.6719 29.3724 27.3503 28.1419 26.3867 26.4883C25.4362 24.8346 24.9609 22.7513 24.9609 20.2383C24.9609 17.6862 25.3906 15.5638 26.25 13.8711C27.1224 12.1654 28.3333 10.8893 29.8828 10.043C31.4323 9.18359 33.2357 8.75391 35.293 8.75391ZM35.332 12.9922C34.1732 12.9922 33.2096 13.3633 32.4414 14.1055C31.6862 14.8477 31.25 16.013 31.1328 17.6016H39.4922C39.4792 16.7161 39.3164 15.9284 39.0039 15.2383C38.7044 14.5482 38.2487 14.0013 37.6367 13.5977C37.0378 13.194 36.2695 12.9922 35.332 12.9922ZM58.7891 31.3906C56.6276 31.3906 54.7852 31 53.2617 30.2188C51.7383 29.4245 50.5794 28.2005 49.7852 26.5469C48.9909 24.8932 48.5938 22.7773 48.5938 20.1992C48.5938 17.5299 49.043 15.3555 49.9414 13.6758C50.8529 11.9831 52.1094 10.7396 53.7109 9.94531C55.3255 9.15104 57.194 8.75391 59.3164 8.75391C60.8268 8.75391 62.1289 8.90365 63.2227 9.20312C64.3294 9.48958 65.293 9.83464 66.1133 10.2383L64.3555 14.8477C63.418 14.4701 62.5456 14.1641 61.7383 13.9297C60.931 13.6823 60.1237 13.5586 59.3164 13.5586C58.2747 13.5586 57.4089 13.806 56.7188 14.3008C56.0286 14.7826 55.5143 15.5117 55.1758 16.4883C54.8372 17.4648 54.668 18.6888 54.668 20.1602C54.668 21.6055 54.8503 22.8034 55.2148 23.7539C55.5794 24.7044 56.1068 25.4141 56.7969 25.8828C57.487 26.3385 58.3268 26.5664 59.3164 26.5664C60.5534 26.5664 61.6536 26.4036 62.6172 26.0781C63.5807 25.7396 64.5182 25.2708 65.4297 24.6719V29.7695C64.5182 30.3424 63.5612 30.7526 62.5586 31C61.569 31.2604 60.3125 31.3906 58.7891 31.3906ZM87.832 23.0703C87.832 24.763 87.4219 26.2344 86.6016 27.4844C85.7812 28.7344 84.5833 29.6979 83.0078 30.375C81.4453 31.0521 79.5443 31.3906 77.3047 31.3906C76.3151 31.3906 75.3451 31.3255 74.3945 31.1953C73.457 31.0651 72.5521 30.8763 71.6797 30.6289C70.8203 30.3685 70 30.0495 69.2188 29.6719V24.0469C70.5729 24.6458 71.9792 25.1862 73.4375 25.668C74.8958 26.1497 76.3411 26.3906 77.7734 26.3906C78.763 26.3906 79.5573 26.2604 80.1562 26C80.7682 25.7396 81.2109 25.3815 81.4844 24.9258C81.7578 24.4701 81.8945 23.9492 81.8945 23.3633C81.8945 22.6471 81.6536 22.0352 81.1719 21.5273C80.6901 21.0195 80.026 20.5443 79.1797 20.1016C78.3464 19.6589 77.4023 19.1836 76.3477 18.6758C75.6836 18.3633 74.9609 17.9857 74.1797 17.543C73.3984 17.0872 72.6562 16.5339 71.9531 15.8828C71.25 15.2318 70.6706 14.444 70.2148 13.5195C69.7721 12.582 69.5508 11.4622 69.5508 10.1602C69.5508 8.45443 69.9414 6.99609 70.7227 5.78516C71.5039 4.57422 72.6172 3.64974 74.0625 3.01172C75.5208 2.36068 77.2396 2.03516 79.2188 2.03516C80.7031 2.03516 82.1159 2.21094 83.457 2.5625C84.8112 2.90104 86.224 3.39583 87.6953 4.04688L85.7422 8.75391C84.4271 8.22005 83.2487 7.8099 82.207 7.52344C81.1654 7.22396 80.1042 7.07422 79.0234 7.07422C78.2682 7.07422 77.6237 7.19792 77.0898 7.44531C76.556 7.67969 76.1523 8.01823 75.8789 8.46094C75.6055 8.89062 75.4688 9.39193 75.4688 9.96484C75.4688 10.6419 75.6641 11.2148 76.0547 11.6836C76.4583 12.1393 77.0573 12.582 77.8516 13.0117C78.6589 13.4414 79.6615 13.9427 80.8594 14.5156C82.3177 15.2057 83.5612 15.9284 84.5898 16.6836C85.6315 17.4258 86.4323 18.3047 86.9922 19.3203C87.5521 20.3229 87.832 21.5729 87.832 23.0703ZM98.4961 0.609375V14.2031C98.4961 15.0234 98.4635 15.8438 98.3984 16.6641C98.3333 17.4844 98.2617 18.3047 98.1836 19.125H98.2617C98.6654 18.5521 99.0755 17.9857 99.4922 17.4258C99.9219 16.8659 100.378 16.3255 100.859 15.8047L106.973 9.16406H113.691L105.02 18.6367L114.219 31H107.344L101.055 22.1523L98.4961 24.2031V31H92.5391V0.609375H98.4961ZM123.301 31H117.344V0.609375H123.301V31ZM138.574 8.75391C140.592 8.75391 142.331 9.14453 143.789 9.92578C145.247 10.694 146.374 11.8138 147.168 13.2852C147.962 14.7565 148.359 16.5534 148.359 18.6758V21.5664H134.277C134.342 23.2461 134.844 24.5677 135.781 25.5312C136.732 26.4818 138.047 26.957 139.727 26.957C141.12 26.957 142.396 26.8138 143.555 26.5273C144.714 26.2409 145.905 25.8112 147.129 25.2383V29.8477C146.048 30.3815 144.915 30.7721 143.73 31.0195C142.559 31.2669 141.133 31.3906 139.453 31.3906C137.266 31.3906 135.326 30.987 133.633 30.1797C131.953 29.3724 130.632 28.1419 129.668 26.4883C128.717 24.8346 128.242 22.7513 128.242 20.2383C128.242 17.6862 128.672 15.5638 129.531 13.8711C130.404 12.1654 131.615 10.8893 133.164 10.043C134.714 9.18359 136.517 8.75391 138.574 8.75391ZM138.613 12.9922C137.454 12.9922 136.491 13.3633 135.723 14.1055C134.967 14.8477 134.531 16.013 134.414 17.6016H142.773C142.76 16.7161 142.598 15.9284 142.285 15.2383C141.986 14.5482 141.53 14.0013 140.918 13.5977C140.319 13.194 139.551 12.9922 138.613 12.9922ZM165.352 8.75391C167.812 8.75391 169.798 9.71094 171.309 11.625C172.832 13.5391 173.594 16.3451 173.594 20.043C173.594 22.5169 173.236 24.6003 172.52 26.293C171.803 27.9727 170.814 29.2422 169.551 30.1016C168.288 30.9609 166.836 31.3906 165.195 31.3906C164.141 31.3906 163.236 31.2604 162.48 31C161.725 30.7266 161.081 30.3815 160.547 29.9648C160.013 29.5352 159.551 29.0794 159.16 28.5977H158.848C158.952 29.1185 159.03 29.6523 159.082 30.1992C159.134 30.7461 159.16 31.2799 159.16 31.8008V40.6094H153.203V9.16406H158.047L158.887 11.9961H159.16C159.551 11.4102 160.026 10.8698 160.586 10.375C161.146 9.88021 161.816 9.48958 162.598 9.20312C163.392 8.90365 164.31 8.75391 165.352 8.75391ZM163.438 13.5195C162.396 13.5195 161.569 13.7344 160.957 14.1641C160.345 14.5938 159.896 15.2383 159.609 16.0977C159.336 16.957 159.186 18.0443 159.16 19.3594V20.0039C159.16 21.4102 159.29 22.6016 159.551 23.5781C159.824 24.5547 160.273 25.2969 160.898 25.8047C161.536 26.3125 162.409 26.5664 163.516 26.5664C164.427 26.5664 165.176 26.3125 165.762 25.8047C166.348 25.2969 166.784 24.5547 167.07 23.5781C167.37 22.5885 167.52 21.3841 167.52 19.9648C167.52 17.8294 167.188 16.2214 166.523 15.1406C165.859 14.0599 164.831 13.5195 163.438 13.5195Z" fill="#1E1E1E"/>
</svg>
